<?xml version="1.0" encoding="UTF-8" standalone="no"?>
<!-- Created with Inkscape (http://www.inkscape.org/) -->

<svg
   width="210mm"
   height="297mm"
   viewBox="0 0 210 297"
   version="1.1"
   id="svg1"
   inkscape:version="1.3 (0e150ed6c4, 2023-07-21)"
   sodipodi:docname="project 3 product sheet.svg"
   xmlns:inkscape="http://www.inkscape.org/namespaces/inkscape"
   xmlns:sodipodi="http://sodipodi.sourceforge.net/DTD/sodipodi-0.dtd"
   xmlns="http://www.w3.org/2000/svg"
   xmlns:svg="http://www.w3.org/2000/svg">
  <sodipodi:namedview
     id="namedview1"
     pagecolor="#ffffff"
     bordercolor="#000000"
     borderopacity="0.25"
     inkscape:showpageshadow="2"
     inkscape:pageopacity="0.0"
     inkscape:pagecheckerboard="0"
     inkscape:deskcolor="#d1d1d1"
     inkscape:document-units="mm"
     inkscape:zoom="0.69219276"
     inkscape:cx="396.56583"
     inkscape:cy="672.50053"
     inkscape:window-width="1920"
     inkscape:window-height="991"
     inkscape:window-x="-9"
     inkscape:window-y="-9"
     inkscape:window-maximized="1"
     inkscape:current-layer="layer1" />
  <defs
     id="defs1" />
  <g
     inkscape:label="Layer 1"
     inkscape:groupmode="layer"
     id="layer1">
    <path
       id="rect1"
       style="stroke-width:2;stroke:#000000;fill:#4d4d4d"
       d="m 71.096526,94.795367 c 16.106942,-5.481189 32.567094,-6.723828 49.691124,0 4.58687,21.023163 0,57.335903 0,57.335903 h -16.4363 c -5.478764,-52.674509 -10.957528,-45.05451 -16.436292,0 H 71.096526 c 0,0 -6.11583,-35.54826 0,-57.335903 z"
       sodipodi:nodetypes="ccccccc" />
    <path
       id="rect2"
       style="fill:#4d4d4d;stroke:#000000;stroke-width:2"
       d="m -5.3513499,91.737453 c 26.4690619,8.025919 41.7878339,3.887886 57.3359069,0 -3.563896,19.435957 -7.357092,38.892767 0,57.335907 -19.111969,5.56309 -38.223938,6.64833 -57.3359069,0 4.416537,-16.9037 5.739913,-35.35398 0,-57.335907 z"
       sodipodi:nodetypes="ccccc" />
    <path
       id="rect3"
       style="fill:#4d4d4d;stroke:#000000;stroke-width:2"
       d="m 139.51737,115.81853 c 21.21093,-19.19243 45.29772,-20.54645 65.74518,0 5.58257,8.91302 2.25917,15.59955 0,22.55213 -21.08921,3.30341 -42.63209,4.79214 -65.74518,0 -3.35715,-7.51738 -5.68562,-15.03476 0,-22.55213 z"
       sodipodi:nodetypes="ccccc" />
    <path
       id="rect1-3"
       style="fill:#000080;stroke:#000000;stroke-width:2"
       d="m 69.689784,171.19397 c 16.106946,-5.48119 32.567096,-6.72383 49.691126,0 4.58687,21.02317 0,57.33591 0,57.33591 h -16.4363 c -5.47877,-52.67451 -10.95753,-45.05451 -16.43629,0 H 69.689784 c 0,0 -6.11583,-35.54826 0,-57.33591 z"
       sodipodi:nodetypes="ccccccc" />
    <path
       id="rect2-7"
       style="fill:#000080;stroke:#000000;stroke-width:2"
       d="m -6.7580918,168.13606 c 26.4690618,8.02592 41.7878338,3.88788 57.3359068,0 -3.563896,19.43596 -7.357092,38.89277 0,57.33591 -19.111969,5.56309 -38.223938,6.64833 -57.3359068,0 4.416537,-16.9037 5.739913,-35.35398 0,-57.33591 z"
       sodipodi:nodetypes="ccccc" />
    <path
       id="rect3-9"
       style="fill:#000080;stroke:#000000;stroke-width:2"
       d="m 138.11063,192.21714 c 21.21093,-19.19243 45.29772,-20.54645 65.74518,0 5.58257,8.91302 2.25917,15.59955 0,22.55213 -21.08921,3.30341 -42.63209,4.79214 -65.74518,0 -3.35715,-7.51738 -5.68562,-15.03476 0,-22.55213 z"
       sodipodi:nodetypes="ccccc" />
    <path
       id="rect1-3-0"
       style="fill:#ff6600;stroke:#000000;stroke-width:2"
       d="m 69.929094,251.54235 c 16.106946,-5.48119 32.567096,-6.72383 49.691126,0 4.58687,21.02317 0,57.33591 0,57.33591 h -16.4363 c -5.47877,-52.67451 -10.95753,-45.05451 -16.43629,0 H 69.929094 c 0,0 -6.11583,-35.54826 0,-57.33591 z"
       sodipodi:nodetypes="ccccccc" />
    <path
       id="rect2-7-7"
       style="fill:#ff6600;stroke:#000000;stroke-width:2"
       d="m -6.5187817,248.48444 c 26.4690617,8.02592 41.7878337,3.88788 57.3359067,0 -3.563896,19.43596 -7.357092,38.89277 0,57.33591 -19.111969,5.56309 -38.223938,6.64833 -57.3359067,0 4.416537,-16.9037 5.739913,-35.35398 0,-57.33591 z"
       sodipodi:nodetypes="ccccc" />
    <path
       id="rect3-9-6"
       style="fill:#ff6600;stroke:#000000;stroke-width:2"
       d="m 138.34994,272.56552 c 21.21093,-19.19243 45.29772,-20.54645 65.74518,0 5.58257,8.91302 2.25917,15.59955 0,22.55213 -21.08921,3.30341 -42.63209,4.79214 -65.74518,0 -3.35715,-7.51738 -5.68562,-15.03476 0,-22.55213 z"
       sodipodi:nodetypes="ccccc" />
    <path
       id="rect1-3-0-0"
       style="fill:#ececec;stroke:#000000;stroke-width:2"
       d="m 71.477039,22.537978 c 16.10695,-5.48119 32.567101,-6.72383 49.691131,0 4.58687,21.02317 0,57.33591 0,57.33591 h -16.4363 c -5.478771,-52.67451 -10.957531,-45.05451 -16.436291,0 h -16.81854 c 0,0 -6.11583,-35.54826 0,-57.33591 z"
       sodipodi:nodetypes="ccccccc" />
    <path
       id="rect2-7-7-3"
       style="fill:#ececec;stroke:#000000;stroke-width:2"
       d="m -4.9708332,19.480068 c 26.4690622,8.02592 41.7878342,3.88788 57.3359122,0 -3.5639,19.43596 -7.3571,38.89277 0,57.33591 -19.111974,5.56309 -38.223943,6.64833 -57.3359122,0 4.41653704,-16.9037 5.73991304,-35.35398 0,-57.33591 z"
       sodipodi:nodetypes="ccccc" />
    <path
       id="rect3-9-6-3"
       style="fill:#ececec;stroke:#000000;stroke-width:2"
       d="m 139.89789,43.561148 c 21.21093,-19.19243 45.29772,-20.54645 65.74518,0 5.58257,8.91302 2.25917,15.59955 0,22.55213 -21.08921,3.30341 -42.63209,4.79214 -65.74518,0 -3.35715,-7.51738 -5.68562,-15.03476 0,-22.55213 z"
       sodipodi:nodetypes="ccccc" />
  </g>
</svg>
